<?xml version="1.0" encoding="utf-8"?>
<!-- Generator: Adobe Illustrator 25.2.3, SVG Export Plug-In . SVG Version: 6.00 Build 0)  -->
<svg version="1.1" id="레이어_1" xmlns="http://www.w3.org/2000/svg" xmlns:xlink="http://www.w3.org/1999/xlink" x="0px"
	 y="0px" viewBox="0 0 1000 1000" style="enable-background:new 0 0 1000 1000;" xml:space="preserve">
<style type="text/css">
	.st0{fill:#AE8443;stroke:#AE8443;stroke-width:2;stroke-miterlimit:10;}
	.st1{fill:#F39800;}
	.st2{display:none;fill:#A16D24;stroke:#F39800;stroke-miterlimit:10;}
	.st3{fill:url(#SVGID_1_);}
	.st4{fill:#9C2283;}
	.st5{fill:#171C61;}
	.st6{fill:#A16D24;}
	.st7{fill:#E61673;stroke:#E4007F;stroke-miterlimit:10;}
	.st8{fill:url(#SVGID_2_);stroke:url(#SVGID_3_);stroke-miterlimit:10;}
	.st9{fill:#A16D24;stroke:#F39800;stroke-miterlimit:10;}
	.st10{fill:#F6B960;stroke:#F39800;stroke-miterlimit:10;}
</style>
<image style="display:none;overflow:visible;enable-background:new    ;" width="363" height="288" xlink:href="EFFA36CD.jpeg"  transform="matrix(3.5964 0 0 3.7818 -699.5613 -56.5802)">
</image>
<path class="st0" d="M644.7,186.6c-5.3-13-6-27.2-6.9-41.2c-1-15.9,7.8-43.7,5-41.7c-7.8,5.9-14.4,13.3-19.3,21.7
	c-8.9,15.2-17.7,32.8-19.5,50.4c-0.6,6.2-1.8,19.6-0.8,25.8c1,6.1,9.9,5.3,14.5,9.5c3.5,3.2,8,5,12.5,6.6c4.9,1.7,10.1,3.1,15.2,2.1
	c5.3-1.1,12.2-7.1,9.8-13.1c-1.4-3.4-3.8-6.6-5.6-9.8C647.8,193.5,646.2,190.1,644.7,186.6z"/>
<g>
	<path class="st1" d="M618.4,188.1c-2.9-6.1-4.7-13.1-6.1-19.7c-5.6-25.7-9.9-51.7-12.8-77.8c-45,26.5-57.3,52.7-92.5,89.9
		c-11.1,11.7-40.2,38.2-50.5,50.6c-44.7,54.2-59.8,34.6-133.5,113.7c-47.2,61.8-86.6,114.8-135.9,149.2
		c-24.9,17.3-30.6,37.6-59,48.6c-3.5,1.4-18.7,15.7-19.2,19.3c-0.4,2.6,59.8,75.2,61.6,77.2c56.1,63.4,43.5,49.5,98.5,98.3
		c17.6,15.6,81.1,66.3,99.3,81.2c71.8,58.6,144.7,99.9,241.3,89.2c0,0,12.2-67.2,13.7-73.5c5.2-22.2,12.1-35.7,16-68.4
		c0.5-4.4-1.6-33.8-2-38.1c-0.7-7.8-0.8-17.1-0.6-25.9c0.4-13.1,1.4-25,2.1-28.7c7.6-44.5,10.5-50.4,53.6-66.4
		c38.1-14.2,78.1,5.1,112.5-16.4c11.9-7.5,23.6-19.5,31.7-30.8c11.8-16.6,26.2-32.2,38-48.8c10.7-15.1,16.1-35.8,15.2-54.1
		c-1.7-32.9-36.7-36.6-48.5-67.5c-6.4-16.8-0.5-45.8-4.2-63.4c-8.6-41.3-46-70-82-93c-21.2-13.5-44.2-26.8-69.4-27.1
		c-19.7-0.2-41.9,7-57.4-4.8C623.9,197.4,620.8,193,618.4,188.1z"/>
	<g>
		<path class="st1" d="M621.2,186.5c-3.4-7.5-5.1-15.6-6.8-23.6c-1.6-7.7-3.1-15.5-4.5-23.2c-2.9-16.3-5.3-32.6-7.2-49.1
			c-0.3-2.4-2.6-4.2-4.9-2.8c-22.3,13.2-41,30-57.8,49.6c-15.7,18.3-30.8,36.7-48.1,53.5c-8.6,8.3-17.3,16.6-25.8,25.1
			c-7,7.1-13.3,14.8-20,22.2c-10.6,11.6-22.3,21.6-35.5,30.2c-13.2,8.6-26.5,16.7-38.9,26.4c-21.4,16.6-41.9,35.7-58.3,57.2
			c-36,47.2-72.1,97.3-120,133.4c-5.5,4.2-11.3,7.9-16.6,12.4c-4.8,4.1-9.2,8.6-13.5,13.3c-8.3,9-16.5,18.2-27.3,24.2
			c-4.3,2.4-9.1,3.7-13.1,6.8c-3.7,2.9-7.2,6.1-10.5,9.5c-3.4,3.6-8.7,8.3-5.7,13.4c2.5,4.2,5.9,8,8.9,11.9c5,6.4,10,12.7,15.1,19
			c10.2,12.6,20.4,25.1,30.8,37.6c10.8,13.1,22.2,25.7,33.6,38.3c9.8,11,19.8,21.8,30.7,31.8c28,25.6,57.1,50.1,86.6,74
			c34.5,28,68.4,57.4,105.4,81.9c44.9,29.6,95.2,50.4,149.4,52.9c14.1,0.7,28.3,0.1,42.4-1.4c1.3-0.1,2.9-0.9,3.1-2.4
			c3.6-19.7,7.2-39.3,10.9-59c5.2-27.7,15.3-54.1,18.8-82.2c0.7-5.4,0.1-11.1-0.2-16.5c-0.4-6.4-0.8-12.8-1.3-19.3
			c-1.4-18.4-1.4-37,0.8-55.4c0.9-7.5,2.5-15.1,4.1-22.4c1.2-5.5,2.7-11.1,5.1-16.2c4.8-9.9,13.4-15.5,23.1-20
			c7.9-3.7,16.3-7.2,24.7-9.6c10.5-3,21.3-3.8,32.1-3.8c20.8-0.1,42.4,2.5,62.4-4.7c20.3-7.4,35.5-23.8,47.9-40.8
			c7.3-10,15.3-19.4,23-29c6.7-8.4,13.8-16.8,18.7-26.3c4.9-9.4,8-19.7,9.4-30.2c1.2-8.7,1.6-18.1-0.8-26.6
			c-4.1-14.3-15.8-23.3-26.6-32.5c-5.9-5.1-11.7-10.5-16-17.1c-4.7-7.3-6.8-15.2-7.3-23.8c-1.1-18.5,2.2-37.2-3.1-55.3
			c-11.1-37.4-44.1-63.2-75.4-83.8c-18.1-11.9-37.1-24-58.3-29.1c-10.1-2.5-20.2-2.8-30.6-1.9c-10.1,0.8-20.7,2.6-30.8,0.8
			C633.1,201.8,625.8,195.7,621.2,186.5c-1.9-3.7-7.5-0.5-5.6,3.3c4.3,8.7,11,15.4,20.3,18.6c8.9,3.1,18.7,2.6,27.9,1.8
			c10.1-0.8,20.2-2.2,30.4-0.9c11.6,1.5,22.8,5.7,33.3,10.9c18.5,9.2,36.1,21,52.6,33.4c15.5,11.7,30.3,25.2,40.9,41.6
			c5.2,8,9.3,16.7,11.8,25.9c2.4,8.9,2.6,17.9,2.4,27.1c-0.3,17.6-1.9,35.9,7.9,51.5c8,12.7,20.7,20.6,31.2,31
			c5.2,5.2,9.5,11.2,11.3,18.4c2.4,9.2,1.3,19.7-0.6,28.9c-2.1,10.2-5.8,20.1-11.6,28.8c-6.7,10.1-14.7,19.4-22.4,28.8
			c-14,17.2-25.9,36.7-44.4,49.6c-18.6,12.9-40.2,13.1-62,12.6c-10.5-0.2-21.1-0.5-31.6,0.8c-10.5,1.2-20.1,4.3-29.9,8.2
			c-10.9,4.3-22.9,9-31,17.8c-7.7,8.3-10.8,19.4-13.1,30.1c-3.7,17.6-5.4,35.1-5.6,53c-0.1,14.4,1.5,28.8,2.3,43.2
			c0.3,5.4,0.9,11.1,0.2,16.5c-1.2,10-3.1,19.9-5.6,29.6c-3.3,13-8,25.8-10.7,39c-4.4,21.6-8.1,43.3-12.1,65c-0.4,2-0.7,4-1.1,5.9
			c1-0.8,2.1-1.6,3.1-2.4c-27.9,3-56.1,2-83.5-4c-25.8-5.7-50.5-15.4-73.8-27.9c-40.7-21.9-75.9-51.6-111.7-80.5
			c-31.6-25.5-62.8-51.3-93.3-78.1c-10.5-9.2-21-18.4-30.7-28.4c-15-15.5-29.2-32-43.4-48.3c-17.9-20.5-35-42-51.8-63.5
			c-3.1-3.9-6.1-7.8-8.9-11.9c-0.1-0.2-0.6-1.2-0.7-1.3c-0.2-0.1,1.2,2,0.2,1.8c0,0,1-1.6,1.2-1.8c2.7-3.6,6.1-6.8,9.5-9.8
			c3.1-2.8,5.8-4.8,9.6-6.5c5.9-2.5,11.4-5.8,16.5-9.8c9.2-7.2,16.5-16.4,24.7-24.7c9.5-9.6,20.9-16.7,31.3-25.1
			c10.6-8.6,20.6-17.8,30.2-27.5c20.7-21,39.3-44,57.5-67.2c9.9-12.7,19.7-25.6,29.5-38.4c9.3-12.1,20.9-22.9,32.1-33.2
			c14-12.9,29-24.6,45.1-34.9c11.7-7.5,23.6-14.7,34.2-23.7c14.1-11.9,25.1-26.8,38.1-39.8c16.3-16.4,33.5-31.8,48.8-49.1
			c16-18.2,30.6-37.9,48.7-54.1c9.9-8.9,20.8-16.5,32.2-23.2c-1.6-0.9-3.3-1.9-4.9-2.8c1.9,17,4.4,33.9,7.4,50.8
			c2.9,16.1,5.1,33.4,12,48.3C617.4,193.6,623,190.3,621.2,186.5z"/>
	</g>
</g>
<path class="st2" d="M619.6,395.6c-1.8,0.9-3.7,1.8-5.5,2.7c-0.3,0.2-0.7,0.5-0.6,0.9c0,0.1,0.2,0.2,0.2,0.3
	c12.1,11.2,26.2,18.6,40.8,23.5s29.6,7.1,44.7,8.5c1.4,0.1,2.8,0.2,4-0.7c0.7-0.6,1.2-1.5,1.6-2.5c1.2-3.6,0.3-7.8-0.7-11.6
	c-2.4-8.6-5.2-17.1-8.5-25.2c-1.3-3.2-2.6-6.3-4.5-8.9c-3-4.1-6.3-5.5-10.6-5c-5.1,0.6-10.2,1.4-15.3,2.5c-10,2-19.9,4.9-29.6,8.6
	C630.2,390.7,624.8,393,619.6,395.6z"/>
<g>
	
		<linearGradient id="SVGID_1_" gradientUnits="userSpaceOnUse" x1="689.3138" y1="630.1819" x2="781.6615" y2="630.1819" gradientTransform="matrix(1 0 0 -1 0 1000)">
		<stop  offset="0" style="stop-color:#172A88"/>
		<stop  offset="1" style="stop-color:#2EA7E0"/>
	</linearGradient>
	<path class="st3" d="M689.3,360.1c-0.5-6.2,6.8-16,16.9-18.6c17.6-4.5,29.4-6,40.8-4.5c13.4,1.8,24.5-1.3,31.9,5.4
		c7.4,6.7-1.8,54.3-4.7,59.2C768.8,410.3,690.8,378.6,689.3,360.1z"/>
	<g>
		<path class="st4" d="M692.6,360.1c-0.1-1.9,0.4-3.6,1.5-5.5c1.3-2.4,3.2-4.4,5.3-6.1c5.3-4.2,12.4-5.1,18.8-6.4
			c6.1-1.3,12.3-2.2,18.6-2.3c6.2-0.1,12.3,1,18.5,1.2c5.7,0.2,12-0.4,17.5,1.6c1,0.4,2.2,1,3.1,1.7c0.3,0.2,0.5,0.5,0.8,0.7
			c0.6,0.5-0.2-0.6,0.1,0.1c0.1,0.2,0.3,0.5,0.4,0.7c0.4,0.7-0.2-0.6,0.1,0.1c0.2,0.7,0.4,1.3,0.6,2c0.1,0.3,0.1,0.7,0.2,1
			c0.1,0.3,0.2,1.2,0.1,0.4c0.1,0.9,0.2,1.8,0.2,2.8c0.1,2,0.1,3.9,0.1,5.9c-0.1,4.6-0.5,9.1-1.1,13.6c-0.9,7.6-2.4,16.2-4.5,24.1
			c-0.3,1.2-0.7,2.4-1.1,3.5c-0.1,0.2-0.2,0.4-0.2,0.6c-0.1,0.4,0.4-0.9,0.1-0.2c-0.1,0.1-0.1,0.2-0.2,0.4c-0.2,0.6,0.5-0.5,0.2-0.2
			c-0.4,0.4,0.7-0.5,0.3-0.2c-0.1,0.1-0.2,0.2-0.4,0.2c0.9-0.4,0.2-0.1-0.4,0.1c-0.2,0.1-0.4,0.1-0.5,0.1c1.1-0.3,0.4,0,0.1,0
			c-0.5,0-1,0-1.5,0c-0.6,0-1.1-0.1-1.7-0.1c-0.3,0-0.6-0.1-0.8-0.1c-1-0.1,0.5,0.1-0.4-0.1c-1.5-0.2-3-0.5-4.4-0.8
			c-3.5-0.8-6.9-1.8-10.3-2.9c-8.4-2.8-15.9-5.9-23.8-9.6c-7.8-3.7-15.4-7.8-22.5-12.7c-0.7-0.5-1.4-1-2.1-1.5
			c-0.4-0.3-0.8-0.6-1.1-0.8c-0.5-0.4-0.1-0.1,0,0c-0.2-0.2-0.5-0.4-0.7-0.6c-1.3-1-2.5-2.1-3.7-3.2c-1.1-1-2.1-2.1-3-3.2
			c0.6,0.8-0.5-0.6-0.6-0.9c-0.3-0.5-0.6-1.1-0.9-1.6c-0.4-0.8,0.1,0.4,0-0.1c-0.1-0.2-0.2-0.5-0.2-0.7
			C692.7,360.6,692.7,360.3,692.6,360.1C692.4,359.4,692.7,360.9,692.6,360.1c-0.2-1.7-1.4-3.2-3.2-3.2c-1.6,0-3.4,1.5-3.2,3.2
			c0.6,6.3,5.8,11.3,10.5,15.1c6.9,5.5,14.5,10,22.3,14c8.6,4.4,17.4,8.2,26.5,11.5c6.9,2.5,14.1,4.8,21.5,5.6
			c2.2,0.2,4.6,0.3,6.8-0.4c2.6-0.9,3.6-2.8,4.5-5.3c2.5-7.4,3.7-15.3,4.9-23c1.4-9.1,2.7-18.8,1.7-28c-0.4-3.2-1-6.8-3.4-9.2
			c-4.4-4.5-11.2-5.4-17.2-5.6c-3.5-0.1-6.9-0.1-10.4-0.2c-3.5-0.2-6.9-0.7-10.3-0.9c-6.4-0.5-12.8,0.1-19.1,1
			c-3.7,0.6-7.4,1.3-11.1,2.1c-3.9,0.9-8,1.6-11.7,3.2c-5.7,2.5-10.9,7.1-13.5,12.7c-1.1,2.4-2,4.9-1.8,7.6
			C686.3,364.3,692.8,364.3,692.6,360.1z"/>
	</g>
</g>
<path class="st5" d="M773.5,370.2c0,5.2-0.9,10.3-1.8,14.6c-1.7,8.8-3.4,14.6-7,14.6c-5.4,0-9.8-13-9.8-29.1s4.4-29.1,9.8-29.1
	c3.5,0,5.9,5.8,7.6,14C773.4,359.6,773.5,364.5,773.5,370.2z"/>
<g>
	<path class="st6" d="M637.7,678.8c2.1-23.7,2.6-36.2,9.3-45.9c8.1-11.8,22.1-19,44.7-27.6c37.8-14.4,79.1,6.9,113.2-14.9
		c11.8-7.6,39.5-32.6,26.1-29.3c0,0-40.7-18.9-193.4,13C507,601.2,377,391.2,357.8,407.8c-12.7,10.9,54.7,111,126.2,191.4
		c67.3,75.7,136.1,131.5,150.4,120.4C638.4,716.5,635,710.5,637.7,678.8z"/>
	<g>
		<path class="st1" d="M641,678.8c0.9-9.9,1.3-20,3.2-29.8c1.3-6.6,3.6-12.6,8-17.7c5.5-6.4,12.8-10.8,20.3-14.5
			c9.9-4.9,20.6-9.6,31.5-11.9c21.8-4.5,44,0.2,66-1.2c10.7-0.6,21.3-2.8,30.9-7.6c6.8-3.4,12.9-8.3,18.7-13.2
			c5.7-4.8,11.7-10,16.1-16.2c1.4-2,2.9-4.7,1.5-7.1c-1.5-2.7-4.7-2.5-7.2-1.9c0.8,0.1,1.7,0.2,2.5,0.3c-2.1-1-4.4-1.6-6.6-2.1
			c-6.8-1.7-13.9-2.5-20.9-3.1c-12.8-1-25.7-1-38.6-0.4c-20.3,0.9-40.6,3.1-60.7,6c-13.4,1.9-26.8,4.1-40.1,6.6
			c-7.4,1.4-14.8,2.8-22.2,4.3c-5.2,1.1-10.4,2.3-15.7,2.9c-17.1,2.1-34.3,0.2-50.9-4.5c-17.2-4.9-33.5-12.6-48.8-21.6
			c-16.1-9.5-31.3-20.6-45.7-32.4c-14.1-11.6-27.6-24-40.8-36.7c-11.7-11.4-23.1-23.1-34.5-34.8c-8.7-8.9-17.3-17.9-26.5-26.2
			c-3.3-2.9-6.6-5.8-10.3-8.3c-2.4-1.6-5.1-3.2-7.9-3.8c-3.1-0.6-6.2,0.2-8.1,2.9c-2.2,3.3-1.5,7.9-0.6,11.6
			c1.5,6,4.2,11.8,6.9,17.4c3.9,7.9,8.3,15.6,12.9,23.2c12.4,20.5,26.2,40.1,40.5,59.3c16.8,22.6,34.3,44.6,52.6,66
			c19.7,23,40.2,45.3,61.8,66.5c18,17.7,36.8,34.9,56.9,50.2c7.2,5.5,14.5,10.7,22.3,15.2c5.3,3.1,11.1,6.1,17.1,7.5
			c4.1,0.9,9.1,1.1,12.3-2.1c3.1-3.1,2.7-8,2.7-12C639.8,699.3,640.1,689,641,678.8c0.4-4.2-6.1-4.1-6.5,0
			c-1,11.4-0.9,22.8-1.3,34.2c0,0.6-0.1,1.2-0.1,1.8c0,0.2,0,0.5-0.1,0.7c0.1-1.1,0-0.1-0.1,0.2c-0.1,0.4-0.6,1.5-0.1,0.5
			c-0.1,0.2-0.7,1.1-0.3,0.6c0.4-0.5-1.1,0.7,0,0.1c-0.3,0.2-1.6,0.8-0.6,0.4c-0.4,0.1-0.8,0.2-1.2,0.4c-0.2,0.1-1.1,0.1-0.1,0
			c-0.3,0-0.5,0.1-0.8,0.1c-0.5,0-1.1,0-1.7-0.1c-0.3,0-0.9-0.1-0.2,0c-0.4-0.1-0.7-0.1-1.1-0.2c-1.4-0.3-2.8-0.7-4.1-1.2
			c-3.3-1.1-6.4-2.7-9.7-4.5c-9.2-5.1-17.8-11.3-26.1-17.7c-24.5-18.9-47-40.5-68.6-62.7c-24.6-25.2-47.8-51.8-69.9-79.2
			c-19.7-24.4-38.5-49.6-56-75.7c-6.8-10.2-13.4-20.7-19.5-31.4c-4.3-7.6-8.5-15.5-11.4-23.4c-0.5-1.4-1-2.9-1.4-4.4
			c-0.2-0.6-0.3-1.3-0.5-1.9c-0.1-0.3-0.1-0.6-0.2-0.9c0-0.2-0.2-1.4-0.1-0.4c-0.1-1-0.1-2-0.1-3c0-0.5-0.2,0.8,0,0
			c0.1-0.2,0.1-0.4,0.1-0.5c0.1-1-0.4,0.3,0.2-0.4c0.4-0.6-0.6,0.5,0.2-0.2c0.5-0.4-0.8,0.5,0,0c0.8-0.4-0.8,0.3,0,0
			c0.8-0.2,0.3,0,0-0.1c0.2,0,0.5,0,0.7,0c0.8-0.1-0.5-0.2,0.1,0c0.6,0.2,1.3,0.4,1.9,0.6c0.6,0.2-0.7-0.3-0.2-0.1
			c0.2,0.1,0.4,0.2,0.6,0.3c0.4,0.2,0.7,0.4,1.1,0.6c0.8,0.5,1.6,1,2.4,1.5c0.9,0.6,1.7,1.2,2.6,1.8c0.1,0.1,0.9,0.7,0.2,0.2
			c0.2,0.2,0.4,0.3,0.6,0.5c0.5,0.4,1,0.8,1.5,1.2c4.7,3.9,9.1,8.1,13.4,12.4c12.2,11.9,23.9,24.3,35.9,36.5
			c14.8,14.9,29.9,29.6,45.8,43.4c16.8,14.6,34.5,28.3,53.4,40c18.1,11.2,37.7,20.7,58.4,26.1c20.6,5.4,41.5,6,62.3,1.7
			c30.6-6.3,61.5-11.7,92.6-15c19.4-2,38.9-3.4,58.4-2.8c6.1,0.2,12.2,0.5,18.2,1.2c1.2,0.1,2.3,0.3,3.5,0.4c0.7,0.1,0.1,0,0.1,0
			c0.3,0,0.6,0.1,0.8,0.1c0.5,0.1,1,0.1,1.5,0.2c1.8,0.3,3.6,0.6,5.4,1c2.2,0.5,4.5,1,6.7,1.7c0.5,0.2,1,0.4,1.6,0.5
			c0.9,0.3-0.4-0.3-0.2-0.1c0.8,0.9,2.5,0.3,3.4,0.1c-0.9,0.1,0.4-0.1,0.4,0c0.1-0.4,0.4,0.7-0.1,0c-0.1-0.1-0.3,0-0.6-0.2
			c-0.8-0.5-0.9-1.1-1.1-2c0,0,0.3-0.2,0-0.1c0,0-0.1,0.2-0.1,0.3c0.3-0.2,0.2-0.5,0.1-0.2c-0.2,0.4-0.4,0.7-0.6,1
			c-2,3.2-5.3,6.3-8.3,9.1c-7.8,7.4-16.3,14.9-26.1,19.5c-14.1,6.6-30.2,6.6-45.4,6c-15.9-0.6-32-1.9-47.7,1.2
			c-8.2,1.6-16,4.8-23.6,8c-6.6,2.8-13.1,5.8-19.1,9.6c-9.3,5.9-17.1,13.8-20.7,24.3c-1.7,5.1-2.5,10.4-3.1,15.7
			c-0.9,7.5-1.5,15.1-2.1,22.6C634.1,682.9,640.6,682.9,641,678.8z"/>
	</g>
</g>
<path class="st7" d="M879.9,450c-1.9,1.2-4.1,1.8-6.4,2.2c-3.5,0.7-7,1-10.6,0.9c-1.3,0-2.8,0-3.5,1c-0.3,0.4-0.4,0.9-0.5,1.5
	c-0.3,3.4,1.6,6.7,4.4,9s6.4,3.7,10,4.5c3.8,0.9,7.8,1.4,11.6,0.6c3.8-0.8,7.4-3.2,8.6-6.5c0.9-2.4,0.6-4.9,0.2-7.4
	c-0.4-3.1-0.8-6.2-2.4-9c-0.8-1.5-5-6.7-7.4-4.7c-0.8,0.6-0.6,3.2-1,4.2C882.3,447.8,881.3,449,879.9,450z"/>
<linearGradient id="SVGID_2_" gradientUnits="userSpaceOnUse" x1="671.6714" y1="756.8723" x2="855.4565" y2="756.8723" gradientTransform="matrix(1 0 0 -1 0 1000)">
	<stop  offset="0" style="stop-color:#172A88"/>
	<stop  offset="0" style="stop-color:#6A3906"/>
	<stop  offset="1" style="stop-color:#B28247"/>
</linearGradient>
<linearGradient id="SVGID_3_" gradientUnits="userSpaceOnUse" x1="671.1714" y1="756.8723" x2="855.9565" y2="756.8723" gradientTransform="matrix(1 0 0 -1 0 1000)">
	<stop  offset="0" style="stop-color:#172A88"/>
	<stop  offset="0" style="stop-color:#956134"/>
	<stop  offset="1" style="stop-color:#B28247"/>
</linearGradient>
<path class="st8" d="M715.7,208.8c26.6,9.5,24,11.6,50.4,25.9c2.5,1.4,18.8,15.2,26.3,21.3c7.3,5.9,9.1,9.1,12.4,11.8
	c16.6,14.1,50.2-0.3,50.7,1.6c0.3,1-10.3,6.9-26.8,10.3c-9.8,2-42.5,8.6-74.1-9.4c-28.4-16.1-40.4-39-45.6-49.1
	c-4.7-9.2-43.7-9.8-36.4-15.1C678.7,201.8,701,203.6,715.7,208.8z"/>
<ellipse cx="760.9" cy="371.3" rx="6" ry="19.4"/>
<path class="st9" d="M876.2,699.1"/>
<path class="st10" d="M838.8,322.1c-3.3-13.5-13-27.8-15.4-31.6c-2.2-3.4-10.2,22.9-10.4,29.5c-0.4,10.3-3.5,26.8,2.3,45.6
	c7.2,23.2,12.8,37.2,19.4,43.4c20.2,19,40.4,21.2,43.1,18.7c1.4-1.3-15.7-13.7-21-20.3c-7.9-9.8-15.4-12.4-16-40.4
	C840.4,350.7,843.3,340.3,838.8,322.1z"/>
</svg>
